<?xml version="1.0" standalone="no"?><!DOCTYPE svg PUBLIC "-//W3C//DTD SVG 1.1//EN" "http://www.w3.org/Graphics/SVG/1.1/DTD/svg11.dtd"><svg t="1641731804313" class="icon" viewBox="0 0 1024 1024" version="1.1" xmlns="http://www.w3.org/2000/svg" p-id="1956" xmlns:xlink="http://www.w3.org/1999/xlink" width="200" height="200"><defs><style type="text/css"></style></defs><path d="M853.333333 320v384a85.333333 85.333333 0 0 1-85.333333 85.333333H256a85.333333 85.333333 0 0 1-85.333333-85.333333V320a85.333333 85.333333 0 0 1 85.333333-85.333333h512a85.333333 85.333333 0 0 1 85.333333 85.333333z m-213.333333 64a21.333333 21.333333 0 0 0 0 42.666667h106.666667a21.333333 21.333333 0 0 0 0-42.666667h-106.666667z m0 106.666667a21.333333 21.333333 0 0 0 0 42.666666h106.666667a21.333333 21.333333 0 0 0 0-42.666666h-106.666667z m0 106.666666a21.333333 21.333333 0 0 0 0 42.666667h106.666667a21.333333 21.333333 0 0 0 0-42.666667h-106.666667zM405.333333 362.666667a64 64 0 0 0-64 64v42.666666a64 64 0 0 0 128 0v-42.666666a64 64 0 0 0-64-64z m-71.850666 185.493333c-32.853333 14.293333-59.989333 38.122667-77.482667 67.648V618.666667a42.666667 42.666667 0 0 0 42.666667 42.666666h213.333333a42.666667 42.666667 0 0 0 42.666667-42.666666v-2.858667c-17.493333-29.525333-44.650667-53.333333-77.482667-67.626667A106.282667 106.282667 0 0 1 405.333333 576a106.282667 106.282667 0 0 1-71.850666-27.84z" p-id="1957"></path></svg>